<mxfile host="app.diagrams.net" modified="2023-09-23T02:39:43.580Z" agent="Mozilla/5.0 (Windows NT 10.0; Win64; x64) AppleWebKit/537.36 (KHTML, like Gecko) Chrome/117.0.0.0 Safari/537.36" etag="0CRq2j5hzAU0RrFS_AGr" version="21.8.0" type="onedrive">
  <diagram name="Page-1" id="EN_TyJ7mpwFog6za4wWJ">
    <mxGraphModel grid="1" page="1" gridSize="10" guides="1" tooltips="1" connect="1" arrows="1" fold="1" pageScale="1" pageWidth="827" pageHeight="1169" math="0" shadow="0">
      <root>
        <mxCell id="0" />
        <mxCell id="1" parent="0" />
        <mxCell id="ljmjoNkGV05wwyPT0JmD-2" value="Player (farmer)" style="rounded=0;whiteSpace=wrap;html=1;" vertex="1" parent="1">
          <mxGeometry x="30" y="80" width="120" height="90" as="geometry" />
        </mxCell>
        <mxCell id="ljmjoNkGV05wwyPT0JmD-3" value="" style="endArrow=none;html=1;rounded=0;" edge="1" parent="1">
          <mxGeometry width="50" height="50" relative="1" as="geometry">
            <mxPoint x="380" y="300" as="sourcePoint" />
            <mxPoint x="430" y="250" as="targetPoint" />
          </mxGeometry>
        </mxCell>
        <mxCell id="ljmjoNkGV05wwyPT0JmD-1" value="Farm" style="rounded=0;whiteSpace=wrap;html=1;" vertex="1" parent="1">
          <mxGeometry x="300" y="-100" width="490" height="580" as="geometry" />
        </mxCell>
        <mxCell id="ljmjoNkGV05wwyPT0JmD-14" style="edgeStyle=orthogonalEdgeStyle;rounded=0;orthogonalLoop=1;jettySize=auto;html=1;entryX=0;entryY=0.5;entryDx=0;entryDy=0;" edge="1" parent="1" source="ljmjoNkGV05wwyPT0JmD-2" target="ljmjoNkGV05wwyPT0JmD-13">
          <mxGeometry relative="1" as="geometry" />
        </mxCell>
        <mxCell id="ljmjoNkGV05wwyPT0JmD-13" value="The way time passes on a farm is like snapshot. Each day the player must water plants, fertilise plots, harvest crops, and maintain the inventory.&lt;br&gt;The player can:&lt;br&gt;&lt;div style=&quot;&quot;&gt;&lt;span style=&quot;background-color: initial;&quot;&gt;- plant seeds (grain-- 10)&lt;/span&gt;&lt;/div&gt;&lt;div style=&quot;&quot;&gt;&lt;span style=&quot;background-color: initial;&quot;&gt;- sell grain (grain-- 10, money++ 50)&lt;/span&gt;&lt;/div&gt;&lt;div style=&quot;&quot;&gt;&lt;span style=&quot;background-color: initial;&quot;&gt;&lt;br&gt;&lt;/span&gt;&lt;/div&gt;&lt;div style=&quot;&quot;&gt;- water plants (water-- 10)&lt;/div&gt;&lt;div style=&quot;&quot;&gt;- fertilise plot (fertiliser-- 10)&lt;/div&gt;&lt;div style=&quot;&quot;&gt;- clear weeds (money-- 20)&lt;/div&gt;&lt;div style=&quot;&quot;&gt;- harvest crops (wheat++ 200)&lt;br&gt;&lt;/div&gt;&lt;div style=&quot;&quot;&gt;&lt;br&gt;&lt;/div&gt;&lt;div style=&quot;&quot;&gt;- buy water (water++ 10, money-- 10)&lt;/div&gt;&lt;div style=&quot;&quot;&gt;&lt;div style=&quot;border-color: var(--border-color);&quot;&gt;- buy fertiliser (fertiliser++ 10, money-- 15)&lt;/div&gt;&lt;div style=&quot;border-color: var(--border-color);&quot;&gt;&lt;br style=&quot;border-color: var(--border-color);&quot;&gt;&lt;/div&gt;&lt;/div&gt;&lt;div style=&quot;&quot;&gt;most units are money per plot&lt;/div&gt;" style="rounded=0;whiteSpace=wrap;html=1;align=left;" vertex="1" parent="1">
          <mxGeometry x="300" y="-80" width="230" height="260" as="geometry" />
        </mxCell>
        <mxCell id="ljmjoNkGV05wwyPT0JmD-15" value="Inventory&lt;br&gt;- grain (each type of plant)&lt;br&gt;- water (litres)&lt;br&gt;- money (AUD)&lt;br&gt;- fertiliser (kg)" style="rounded=0;whiteSpace=wrap;html=1;align=left;" vertex="1" parent="1">
          <mxGeometry x="310" y="220" width="170" height="120" as="geometry" />
        </mxCell>
        <mxCell id="5wejD83uETPqeoIf3nie-1" value="Plots:&lt;br&gt;- contains a singular type of plant&lt;br&gt;- has a water meter &amp;gt; when the meter goes below a certain number, the plot must be watered, or else the plant dies&lt;br&gt;- has a nutrient meter &amp;gt; when the meter goes below a certain number, the plot must be fertilised or else the plant stops growing&lt;br&gt;- weed grows periodically and must be removed, this costs money." style="rounded=0;whiteSpace=wrap;html=1;align=left;" vertex="1" parent="1">
          <mxGeometry x="530" y="510" width="250" height="160" as="geometry" />
        </mxCell>
        <mxCell id="5wejD83uETPqeoIf3nie-3" style="edgeStyle=orthogonalEdgeStyle;rounded=0;orthogonalLoop=1;jettySize=auto;html=1;entryX=0.5;entryY=0;entryDx=0;entryDy=0;" edge="1" parent="1" source="5wejD83uETPqeoIf3nie-2" target="5wejD83uETPqeoIf3nie-1">
          <mxGeometry relative="1" as="geometry" />
        </mxCell>
        <mxCell id="5wejD83uETPqeoIf3nie-2" value="The farm contains a 2D array of plots that can be added and removed." style="rounded=0;whiteSpace=wrap;html=1;" vertex="1" parent="1">
          <mxGeometry x="520" y="310" width="170" height="90" as="geometry" />
        </mxCell>
      </root>
    </mxGraphModel>
  </diagram>
</mxfile>
